<svg role="img" viewBox="0 0 24 24" xmlns="http://www.w3.org/2000/svg"><title>Epic Games</title><path fill="#FFFFFF" d="M3.537 0 C2.165 0 1.66 .506 1.66 1.879 V18.44 a4.262 4.262 0 0 0 .02 .433 c.031 .3 .037 .59 .316 .92 .027 .033 .311 .245 .311 .245 .153 .075 .258 .13 .43 .2 l8.335 3.491 c.433 .199 .614 .276 .928 .27 h.002 c.314 .006 .495 -.071 .928 -.27 l8.335 -3.492 c.172 -.07 .277 -.124 .43 -.2 0 0 .284 -.211 .311 -.243 .28 -.33 .285 -.621 .316 -.92 a4.261 4.261 0 0 0 .02 -.434 V1.879 c0 -1.373 -.506 -1.88 -1.878 -1.88 z m13.366 3.11 h.68 c1.138 0 1.688 .553 1.688 1.696 v1.88 h-1.374 v-1.8 c0 -.369 -.17 -.54 -.523 -.54 h-.235 c-.367 0 -.537 .17 -.537 .539 v5.81 c0 .369 .17 .54 .537 .54 h.262 c.353 0 .523 -.171 .523 -.54 V8.619 h1.373 v2.143 c0 1.144 -.562 1.71 -1.7 1.71 h-.694 c-1.138 0 -1.7 -.566 -1.7 -1.71 V4.82 c0 -1.144 .562 -1.709 1.7 -1.709 z m-12.186 .08 h3.114 v1.274 H6.117 v2.603 h1.648 v1.275 H6.117 v2.774 h1.74 v1.275 h-3.14 z m3.816 0 h2.198 c1.138 0 1.7 .564 1.7 1.708 v2.445 c0 1.144 -.562 1.71 -1.7 1.71 h-.799 v3.338 h-1.4 z m4.53 0 h1.4 v9.201 h-1.4 z m-3.13 1.235 v3.392 h.575 c.354 0 .523 -.171 .523 -.54 V4.965 c0 -.368 -.17 -.54 -.523 -.54 z m-3.74 10.147 a1.708 1.708 0 0 1 .591 .108 1.745 1.745 0 0 1 .49 .299 l-.452 .546 a1.247 1.247 0 0 0 -.308 -.195 .91 .91 0 0 0 -.363 -.068 .658 .658 0 0 0 -.28 .06 .703 .703 0 0 0 -.224 .163 .783 .783 0 0 0 -.151 .243 .799 .799 0 0 0 -.056 .299 v.008 a.852 .852 0 0 0 .056 .31 .7 .7 0 0 0 .157 .245 .736 .736 0 0 0 .238 .16 .774 .774 0 0 0 .303 .058 .79 .79 0 0 0 .445 -.116 v-.339 h-.548 v-.565 H7.37 v1.255 a2.019 2.019 0 0 1 -.524 .307 1.789 1.789 0 0 1 -.683 .123 1.642 1.642 0 0 1 -.602 -.107 1.46 1.46 0 0 1 -.478 -.3 1.371 1.371 0 0 1 -.318 -.455 1.438 1.438 0 0 1 -.115 -.58 v-.008 a1.426 1.426 0 0 1 .113 -.57 1.449 1.449 0 0 1 .312 -.46 1.418 1.418 0 0 1 .474 -.309 1.58 1.58 0 0 1 .598 -.111 1.708 1.708 0 0 1 .045 0 z m11.963 .008 a2.006 2.006 0 0 1 .612 .094 1.61 1.61 0 0 1 .507 .277 l-.386 .546 a1.562 1.562 0 0 0 -.39 -.205 1.178 1.178 0 0 0 -.388 -.07 .347 .347 0 0 0 -.208 .052 .154 .154 0 0 0 -.07 .127 v.008 a.158 .158 0 0 0 .022 .084 .198 .198 0 0 0 .076 .066 .831 .831 0 0 0 .147 .06 c.062 .02 .14 .04 .236 .061 a3.389 3.389 0 0 1 .43 .122 1.292 1.292 0 0 1 .328 .17 .678 .678 0 0 1 .207 .24 .739 .739 0 0 1 .071 .337 v.008 a.865 .865 0 0 1 -.081 .382 .82 .82 0 0 1 -.229 .285 1.032 1.032 0 0 1 -.353 .18 1.606 1.606 0 0 1 -.46 .061 2.16 2.16 0 0 1 -.71 -.116 1.718 1.718 0 0 1 -.593 -.346 l.43 -.514 c.277 .223 .578 .335 .9 .335 a.457 .457 0 0 0 .236 -.05 .157 .157 0 0 0 .082 -.142 v-.008 a.15 .15 0 0 0 -.02 -.077 .204 .204 0 0 0 -.073 -.066 .753 .753 0 0 0 -.143 -.062 2.45 2.45 0 0 0 -.233 -.062 5.036 5.036 0 0 1 -.413 -.113 1.26 1.26 0 0 1 -.331 -.16 .72 .72 0 0 1 -.222 -.243 .73 .73 0 0 1 -.082 -.36 v-.008 a.863 .863 0 0 1 .074 -.359 .794 .794 0 0 1 .214 -.283 1.007 1.007 0 0 1 .34 -.185 1.423 1.423 0 0 1 .448 -.066 2.006 2.006 0 0 1 .025 0 z m-9.358 .025 h.742 l1.183 2.81 h-.825 l-.203 -.499 H8.623 l-.198 .498 h-.81 z m2.197 .02 h.814 l.663 1.08 .663 -1.08 h.814 v2.79 h-.766 v-1.602 l-.711 1.091 h-.016 l-.707 -1.083 v1.593 h-.754 z m3.469 0 h2.235 v.658 h-1.473 v.422 h1.334 v.61 h-1.334 v.442 h1.493 v.658 h-2.255 z m-5.3 .897 l-.315 .793 h.624 z m-1.145 5.19 h8.014 l-4.09 1.348 z"/></svg>
